<svg width="24" height="24" viewBox="0 0 24 24" fill="none" xmlns="http://www.w3.org/2000/svg">
<rect width="24" height="24" fill="#1E1E1E"/>
<g id="Landing Page Design">
<rect width="1440" height="4584" transform="translate(-891 -66)" fill="white"/>
<g id="Group 4">
<g id="Group 2">
<g id="Group 1">
<g id="Frame 2">
<rect x="-16" y="-16" width="56" height="56" rx="28" fill="#12132D" fill-opacity="0.03"/>
<rect x="-15.5" y="-15.5" width="55" height="55" rx="27.5" stroke="#030712" stroke-opacity="0.1"/>
<g id="Frame">
<path id="Vector" d="M2.25 12.0001L11.204 3.04507C11.644 2.60607 12.356 2.60607 12.795 3.04507L21.75 12.0001M4.5 9.75007V19.8751C4.5 20.4961 5.004 21.0001 5.625 21.0001H9.75V16.1251C9.75 15.5041 10.254 15.0001 10.875 15.0001H13.125C13.746 15.0001 14.25 15.5041 14.25 16.1251V21.0001H18.375C18.996 21.0001 19.5 20.4961 19.5 19.8751V9.75007M8.25 21.0001H16.5" stroke="#12132D" stroke-opacity="0.6" stroke-width="1.5" stroke-linecap="round" stroke-linejoin="round"/>
</g>
</g>
</g>
</g>
</g>
</g>
</svg>
